# xmcd
#
# Track frame offsets: 
#        150
#        13570
#        25952
#        39136
#        51983
#        69454
#        82174
#        96412
#        110381
#        123853
#        139729
#        153683
#        168522
#        181858
#
# Disc length: 2451 seconds
#
# Revision: 1
# Processed by: cddbd v1.5.2PL0 Copyright (c) Steve Scherf et al.
# Submitted via: ExactAudioCopy v0.99pb5
#
DISCID=b709910e
DTITLE=Die Krochledern - Singen und Jodln bis dass die Lederne krocht
DYEAR=2005
DGENRE=Folk
TTITLE0=Liabe Leut, heut is heut
TTITLE1=Ollawal do hommas schön 
TTITLE2=Vergiss du nie die Kinderzeit 
TTITLE3=An kurzn Janka hob i 
TTITLE4=Du bist die Hoamat für mi 
TTITLE5=Stainzerbuam Boarischer 
TTITLE6=Wiederamol 
TTITLE7=I trog mei Krochlederne gern 
TTITLE8=Jodln alloan 
TTITLE9=Es tuat einfoch guat 
TTITLE10=Apferlpolka 
TTITLE11=Nobl geht die Wölt zugrund 
TTITLE12=Sog mir wos du denkst 
TTITLE13=Servas und Baba 
EXTD=YEAR: 2005
EXTT0=
EXTT1=
EXTT2=
EXTT3=
EXTT4=
EXTT5=
EXTT6=
EXTT7=
EXTT8=
EXTT9=
EXTT10=
EXTT11=
EXTT12=
EXTT13=
PLAYORDER=
